<svg xmlns="http://www.w3.org/2000/svg" xmlns:xlink="http://www.w3.org/1999/xlink" version="1.1" x="0px" y="0px" viewBox="0 0 100 125" enable-background="new 0 0 100 100" xml:space="preserve"><g><rect x="-864" width="185" height="99"/><rect x="-672" y="-36" width="100" height="30"/><text transform="matrix(1 0 0 1 -606 -19.5)" fill="#000000" font-family="'Helvetica'" font-size="2.4">http://thenounproject.com</text><text transform="matrix(1 0 0 1 -664.834 -24.5)"><tspan x="0" y="0" fill="#000000" font-family="'Helvetica-Bold'" font-size="6.1578">The Noun Project</tspan><tspan x="1.12" y="4.8" fill="#000000" font-family="'Helvetica-Bold'" font-size="4">Icon Template</tspan></text><text transform="matrix(1 0 0 1 -850.5 10.5)" fill="#000000" font-family="'Helvetica-Bold'" font-size="6.1578">Reminders</text><line fill="#000000" stroke="#FFFFFF" stroke-miterlimit="10" x1="-664" y1="-14.5" x2="-654" y2="-14.5"/><line fill="#000000" stroke="#FFFFFF" stroke-miterlimit="10" x1="-851" y1="16.5" x2="-834" y2="16.5"/><g><g><g><rect x="-842.802" y="31.318" fill="#000000" width="8.721" height="8.642"/><path fill="#000000" d="M-836.455,42.312h4.747v-4.703h-4.747V42.312z M-831.266,42.749h-5.63V37.17h5.63V42.749      L-831.266,42.749z M-838.221,44.062h8.279v-8.203h-8.279V44.062L-838.221,44.062z M-829.5,44.5h-9.163v-9.079h9.163V44.5      L-829.5,44.5z"/><polygon fill="#000000" points="-838.149,44.133 -838.292,43.991 -830.013,35.787 -829.871,35.929     "/></g></g></g><rect x="-851" y="58" fill="none" width="35" height="32.5"/><text transform="matrix(1 0 0 1 -851 60.1572)"><tspan x="0" y="0" fill="#000000" font-family="'Helvetica-Bold'" font-size="3">Strokes</tspan><tspan x="0" y="5" fill="#000000" font-family="'Helvetica'" font-size="2.4">Try to keep strokes at 4px</tspan><tspan x="0" y="10" fill="#000000" font-family="'Helvetica'" font-size="2.4">Minimum stroke weight is 2px</tspan><tspan x="0" y="14.5" fill="#000000" font-family="'Helvetica'" font-size="2.4">For thicker strokes use even </tspan><tspan x="0" y="17.5" fill="#000000" font-family="'Helvetica'" font-size="2.4">numbers: 6px, 8px etc.</tspan><tspan x="0" y="22" fill="#000000" font-family="'Helvetica-Bold'" font-size="2.4">Remember to expand strokes </tspan><tspan x="0" y="25" fill="#000000" font-family="'Helvetica-Bold'" font-size="2.4">before saving as an SVG </tspan></text><rect x="-808.5" y="58" fill="none" width="35" height="32.5"/><text transform="matrix(1 0 0 1 -808.5 60.1572)"><tspan x="0" y="0" fill="#000000" font-family="'Helvetica-Bold'" font-size="3">Size</tspan><tspan x="0" y="5" fill="#000000" font-family="'Helvetica'" font-size="2.4">Cannot be wider or taller than </tspan><tspan x="0" y="8.5" fill="#000000" font-family="'Helvetica'" font-size="2.4">100px (artboard size)</tspan><tspan x="0" y="13.5" fill="#000000" font-family="'Helvetica'" font-size="2.4">Scale your icon to fill as much of </tspan><tspan x="0" y="16.5" fill="#000000" font-family="'Helvetica'" font-size="2.4">the artboard as possible</tspan></text><rect x="-766" y="58" fill="none" width="35" height="32.5"/><text transform="matrix(1 0 0 1 -766 60.1572)"><tspan x="0" y="0" fill="#000000" font-family="'Helvetica-Bold'" font-size="3">Ungroup</tspan><tspan x="0" y="5" fill="#000000" font-family="'Helvetica'" font-size="2.4">If your design has more than one </tspan><tspan x="0" y="8" fill="#000000" font-family="'Helvetica'" font-size="2.4">shape, make sure to ungroup</tspan></text><rect x="-722" y="58" fill="none" width="35" height="32.5"/><text transform="matrix(1 0 0 1 -722 60.1572)"><tspan x="0" y="0" fill="#000000" font-family="'Helvetica-Bold'" font-size="3">Save as</tspan><tspan x="0" y="5" fill="#000000" font-family="'Helvetica'" font-size="2.4">Save as .SVG and make sure </tspan><tspan x="0" y="8" fill="#000000" font-family="'Helvetica'" font-size="2.4">“Use Artboards” is checked</tspan></text><text transform="matrix(1.0074 0 0 1 -797.542 30.5933)" fill="#000000" font-family="'Helvetica'" font-size="2.5731">100px</text><text transform="matrix(1.0074 0 0 1 -713 39)" fill="#000000" font-family="'Helvetica-Bold'" font-size="5.1462">.SVG</text><rect x="-798.514" y="34.815" fill="#000000" width="10.261" height="10.185"/><rect x="-798.477" y="31.766" fill="#000000" width="0.522" height="2.337"/><rect x="-788.812" y="31.766" fill="#000000" width="0.523" height="2.337"/><rect x="-799" y="32.337" fill="#000000" width="11.233" height="0.572"/><g><rect x="-755.805" y="33.844" fill="#000000" width="10.305" height="10.156"/><rect x="-748.809" y="28.707" fill="#000000" width="3.308" height="3.261"/></g><rect x="-850.5" y="22.5" fill="#000000" stroke="#FFFFFF" stroke-miterlimit="10" width="30" height="30"/><rect x="-808.5" y="22.5" fill="#000000" stroke="#FFFFFF" stroke-miterlimit="10" width="30" height="30"/><rect x="-765.5" y="22.5" fill="#000000" stroke="#FFFFFF" stroke-miterlimit="10" width="30" height="30"/><rect x="-721.5" y="22.5" fill="#000000" stroke="#FFFFFF" stroke-miterlimit="10" width="30" height="30"/></g><g><g><path d="M-610.235,156.932c-7.937,0.391-10.328,7.407-10.275,14.361c0.033,4.454,1.437,7.103,3.406,10.993    c3.362,6.641,6.725,13.28,10.087,19.92c0.396,0.78,0.791,1.562,1.186,2.342c0.368,0.725-0.249-0.917,0.088,0.328    c0.789,2.909-0.413,5.153-3.282,6.138c-2.672,0.917-6.11,0.537-8.922,0.537c-3.786,0-7.572,0-11.358,0    c-2.909,0-6.984,0.325-8.714-2.472c-0.456-0.736-0.42-1.85-0.281-2.666c0.113-0.663,0.591-1.726,0.169-0.841    c2.674-5.613,5.348-11.228,8.022-16.842c1.791-3.76,5.305-8.561,5.882-12.759c1.088-7.928-0.24-18.552-10.155-19.04    c-3.385-0.167-3.369,5.084,0,5.25c4.42,0.218,5.101,4.724,5.247,8.335c0.053,1.319-0.033,2.646-0.155,3.959    c-0.115,1.232,0.47-0.616-0.073,0.522c-2.883,6.055-5.767,12.108-8.65,18.162c-1.745,3.664-4.25,7.515-5.268,11.48    c-1.648,6.425,2.796,10.904,8.885,11.901c6.252,1.024,13.096,0.259,19.402,0.259c6.006,0,13.175-1.184,14.54-8.123    c0.731-3.716-0.714-6.525-2.317-9.693c-3.383-6.68-6.766-13.36-10.148-20.04c-0.665-1.313-1.33-2.627-1.995-3.939    c-0.486-0.961,0.007,0.567-0.176-1.046c-0.463-4.103-0.729-11.502,4.857-11.777C-606.866,162.016-606.85,156.765-610.235,156.932    L-610.235,156.932z"/></g><g><path d="M-476.4,36.728c-4.85,0-9.699,0-14.549,0c-3.572,0-6.97,0.09-10.159,1.986c-6.396,3.801-2.308,12.815-0.518,18.048    c2.086,6.101,4.849,11.901,7.187,17.893c2.137,5.476,10.312,5.968,14.95,4.027c4.445-1.858,5.771-7.811,7.412-11.897    c2.651-6.605,7.088-15.621,6.172-22.913C-466.534,38.871-471.944,36.779-476.4,36.728c-3.387-0.04-3.383,5.211,0,5.25    c1.115,0.013,2.161,0.256,3.225,0.582c3.276,1.002,1.87,4.753,1.305,7.157c-1.342,5.711-3.497,11.259-5.679,16.694    c-1.082,2.697-2.019,6.913-5.052,7.822c-4.818,1.443-6.932-1.385-8.563-5.135c-2.317-5.328-4.433-10.752-6.252-16.271    c-0.725-2.199-2.724-6.527-1.732-8.793c0.703-1.606,3.44-1.95,4.968-2.046c5.882-0.37,11.887-0.01,17.781-0.01    C-473.015,41.978-473.015,36.728-476.4,36.728z"/></g><g><path d="M-479.436,21.125c-0.451,8.378-12.55,8.378-13.001,0C-492.889,12.74-479.885,12.784-479.436,21.125    c0.182,3.367,5.433,3.385,5.25,0c-0.357-6.644-5.106-11.392-11.75-11.75c-6.63-0.357-11.422,5.643-11.751,11.75    c-0.357,6.629,5.646,11.419,11.751,11.748c6.628,0.357,11.421-5.643,11.75-11.748C-474.003,17.74-479.254,17.758-479.436,21.125z"/></g><g><path d="M-483.853,77.978c0,2.873,0,5.746,0,8.619c0,3.386,5.25,3.386,5.25,0c0-2.873,0-5.746,0-8.619    C-478.603,74.592-483.853,74.592-483.853,77.978L-483.853,77.978z"/></g><g><path d="M-491.658,77.978c0,2.873,0,5.746,0,8.619c0,3.386,5.25,3.386,5.25,0c0-2.873,0-5.746,0-8.619    C-486.408,74.592-491.658,74.592-491.658,77.978L-491.658,77.978z"/></g><g><path d="M-616.801,21.125c-0.451,8.377-12.551,8.378-13.002,0C-630.254,12.739-617.25,12.785-616.801,21.125    c0.182,3.367,5.433,3.385,5.25,0c-0.358-6.644-5.108-11.392-11.752-11.75c-6.629-0.357-11.421,5.644-11.75,11.75    c-0.357,6.628,5.645,11.419,11.75,11.748c6.628,0.357,11.423-5.643,11.752-11.748C-611.368,17.74-616.619,17.758-616.801,21.125z"/></g><g><path d="M-631.168,79.726c4.849,0,9.698,0,14.547,0c3.573,0,6.97-0.091,10.16-1.986c6.396-3.801,2.31-12.814,0.52-18.049    c-2.087-6.101-4.851-11.901-7.188-17.892c-2.137-5.476-10.312-5.967-14.95-4.028c-4.445,1.858-5.771,7.811-7.412,11.897    c-2.651,6.607-7.084,15.621-6.17,22.915C-641.035,77.582-635.623,79.674-631.168,79.726c3.387,0.04,3.383-5.21,0-5.25    c-1.115-0.013-2.161-0.256-3.225-0.582c-3.275-1.002-1.868-4.754-1.304-7.157c1.342-5.712,3.497-11.261,5.678-16.695    c1.083-2.697,2.018-6.913,5.052-7.821c4.818-1.444,6.931,1.384,8.562,5.134c2.318,5.329,4.434,10.752,6.254,16.272    c0.725,2.199,2.724,6.526,1.731,8.794c-0.704,1.606-3.442,1.95-4.97,2.046c-5.881,0.37-11.885,0.01-17.779,0.01    C-634.554,74.476-634.554,79.726-631.168,79.726z"/></g><g><path d="M-621.218,77.978c0,2.873,0,5.746,0,8.619c0,3.386,5.25,3.386,5.25,0c0-2.873,0-5.746,0-8.619    C-615.968,74.592-621.218,74.592-621.218,77.978L-621.218,77.978z"/></g><g><path d="M-629.023,77.978c0,2.873,0,5.746,0,8.619c0,3.386,5.25,3.386,5.25,0c0-2.873,0-5.746,0-8.619    C-623.773,74.592-629.023,74.592-629.023,77.978L-629.023,77.978z"/></g><path d="M-321.023,175.952c-3.688-4.948-7.376-9.896-11.063-14.843c-0.843-1.13-1.957-3.449-3.417-3.852   c-1.89-0.52-4.348-0.258-6.269-0.258c-5.683,0-11.364,0-17.047,0C-372.81,158-370,174.077-370,183.587c0,7.033,0,14.067,0,21.102   c0,5.978,1.705,11.313,8.125,12.691c4.209,0.903,9.014,0.239,13.253,0.239c5.392,0,10.761,0.192,16.149-0.009   c6.475-0.241,12.117-4.488,12.119-11.342c0.002-6.236-0.011-12.474-0.009-18.71C-320.361,184.659-319.126,178.497-321.023,175.952z    M-327.564,175.404c-2.146-0.294-4.436-0.587-6.436-0.881c0-2.584,0-5.168,0-7.752C-332,169.648-329.71,172.526-327.564,175.404z    M-325.634,206.084c-0.002,6.385-6.739,5.916-11.245,5.916c-6.955,0-13.909,0-20.863,0c-4.978,0-7.258-1.438-7.258-6.896   c0-6.848,0-13.694,0-20.542c0-5.424-0.746-11.047,0.018-16.443c0.439-3.121,3.089-5.119,6.163-5.119c6.534,0,13.069,0,19.604,0   c-0.25,0-0.784,0.427-0.784,1c0,4.264,0,8.527,0,12.791c0,1.05,0.979,2.376,2.114,2.531c3.433,0.47,6.959,0.939,10.392,1.409   c0.682,0.094,1.324-0.056,1.821-0.342c0,2.39,0.022,4.688,0.021,7.077C-325.653,193.703-325.632,199.848-325.634,206.084z"/><path d="M-461.382,196.986c0.002-6.238,0.005-12.478,0.007-18.717c0.002-4.259-0.266-8.761-1.281-12.903   c-1.221-4.979-7.415-5.663-11.659-5.897c-7.411-0.409-14.929-0.023-22.351-0.023c-13.973,0.275-10.875,18.523-10.875,27.74   c0,8.857-3.447,28.521,10.771,27.709c5.849-0.334,11.808-0.006,17.665-0.006c4.678,0,9.256,0.422,13.421-2.165   C-460.326,209.396-461.384,202.357-461.382,196.986z M-469.057,208.64c-3.754,2.332-10.763,0.999-14.778,0.999   c-4.718,0-9.893,0.726-14.571-0.079c-5.427-0.935-3.594-10.771-3.594-14.74c0-7.204,0-14.408,0-21.611   c0-3.918,0.454-8.208,5.334-8.208c6.202,0,12.404,0,18.606,0c1.842,0,3.668-0.159,5.507-0.005c2.042,0.171,4.479,0.393,5.024,2.621   c0.588,2.396,0.636,4.94,0.775,7.395c0.29,5.099,0.125,10.21,0.123,15.313C-466.631,194.693-464.61,205.878-469.057,208.64z"/><g><path d="M-493.812,177.494c5.882,0,11.764,0,17.646,0c3.386,0,3.386-5.25,0-5.25c-5.882,0-11.764,0-17.646,0    C-497.197,172.244-497.197,177.494-493.812,177.494L-493.812,177.494z"/></g><g><path d="M-476.461,193.51c0.197,0,0.396,0,0.593,0c1.431,0,2.625-1.194,2.625-2.625s-1.194-2.625-2.625-2.625    c-0.197,0-0.396,0-0.593,0c-1.431,0-2.625,1.194-2.625,2.625S-477.892,193.51-476.461,193.51L-476.461,193.51z"/></g><g><path d="M-484.767,193.51c0.197,0,0.396,0,0.593,0c1.431,0,2.625-1.194,2.625-2.625s-1.194-2.625-2.625-2.625    c-0.197,0-0.396,0-0.593,0c-1.431,0-2.625,1.194-2.625,2.625S-486.197,193.51-484.767,193.51L-484.767,193.51z"/></g><g><path d="M-493,193.51c0.197,0,0.396,0,0.593,0c1.431,0,2.625-1.194,2.625-2.625s-1.194-2.625-2.625-2.625    c-0.197,0-0.396,0-0.593,0c-1.431,0-2.625,1.194-2.625,2.625S-494.431,193.51-493,193.51L-493,193.51z"/></g><g><path d="M-476.461,203c0.197,0,0.396,0,0.593,0c1.431,0,2.625-1.194,2.625-2.625s-1.194-2.625-2.625-2.625    c-0.197,0-0.396,0-0.593,0c-1.431,0-2.625,1.194-2.625,2.625S-477.892,203-476.461,203L-476.461,203z"/></g><g><path d="M-484.767,203c0.197,0,0.396,0,0.593,0c1.431,0,2.625-1.194,2.625-2.625s-1.194-2.625-2.625-2.625    c-0.197,0-0.396,0-0.593,0c-1.431,0-2.625,1.194-2.625,2.625S-486.197,203-484.767,203L-484.767,203z"/></g><g><path d="M-493,203c0.197,0,0.396,0,0.593,0c1.431,0,2.625-1.194,2.625-2.625s-1.194-2.625-2.625-2.625c-0.197,0-0.396,0-0.593,0    c-1.431,0-2.625,1.194-2.625,2.625S-494.431,203-493,203L-493,203z"/></g><g><path d="M-55.323,307.214c-11.166,11.167-22.332,22.334-33.498,33.5c-2.396,2.396,1.316,6.108,3.713,3.713    c11.166-11.167,22.332-22.334,33.498-33.5C-49.215,308.53-52.927,304.818-55.323,307.214z"/><path d="M-76.655,318.525c0.182-0.119,0.36-0.26,0.529-0.443c0.182-0.167,0.321-0.343,0.439-0.522    c2.646-3.325,2.501-7.834-0.441-11.025c-3.098-3.359-8.393-2.916-11.549,0c-3.355,3.101-2.915,8.388,0,11.548    C-84.742,321.262-79.852,321.026-76.655,318.525z M-83.964,310.247c2.558-2.772,6.668,1.363,4.125,4.122    C-82.61,316.921-86.521,313.017-83.964,310.247z"/><path d="M-52.144,332.891c-3.1-3.355-8.388-2.914-11.547,0c-3.356,3.098-2.915,8.391,0,11.548    c2.936,3.179,7.828,2.947,11.023,0.441c0.181-0.118,0.357-0.258,0.525-0.44c0.18-0.166,0.319-0.341,0.438-0.519    C-49.054,340.596-49.196,336.083-52.144,332.891z M-55.854,340.727c-2.769,2.555-6.679-1.354-4.123-4.123    C-57.421,333.832-53.308,337.968-55.854,340.727z"/></g><path d="M-217.629,164.752c-0.744-3.034-1.37-6.067-2.114-9.102c-0.63-2.565-4.313-2.451-5.004,0   c-1.529,5.43-3.026,10.857-4.556,16.286c-0.029,0.111,0.153,0.229,0.138,0.35c-0.033,0.194,0.165,0.382,0.165,0.561   c0,14.742,0,29.484,0,44.227c0,0.919,0.312,1.808,1.111,2.267c1.468,0.841,2.842,1.682,4.309,2.522   c0.816,0.469,1.549,0.477,2.366,0c1.755-1.023,5.214-2.26,5.214-4.743c0-1.662,0-3.323,0-4.985c0-8.189,0-16.378,0-24.567   c0-4.965,0-9.931,0-14.896C-216,170.121-217.029,167.196-217.629,164.752z M-221.838,168.661c-0.353,0.001-0.705,0.002-1.058,0.003   c0.188-0.67,0.377-1.34,0.565-2.01C-222.166,167.323-222.002,167.992-221.838,168.661z M-224,215.552c0-13.878,0-27.756,0-41.634   c1-0.004,2-0.007,3-0.01c0,0.318,0,0.637,0,0.955c0,2.726,0,5.451,0,8.177c0,10.866,0,21.733,0,32.6   c0,0.308-0.881,0.615-1.41,0.924C-222.998,216.226-224,215.889-224,215.552z"/><path d="M-192,153c-5.257,0-10.515,0-15.771,0c-0.772,0-1.36,0.469-1.78,0.891c-0.025,0.021-0.048,0.14-0.073,0.162   c-0.022,0.025,0.151,0.095,0.13,0.12c-0.422,0.42-0.505,1.055-0.505,1.827c0,21.025,0,42.05,0,63.075   c0,1.431,0.798,2.925,2.229,2.925c5.257,0,10.515,0,15.771,0c1.431,0,3-1.494,3-2.925c0-21.025,0-42.05,0-63.075   C-189,154.569-190.569,153-192,153z M-205,159c3,0,7,0,10,0c0,2,0,4,0,7c-1,0-3,0-4,0c-4,0-4,5,0,5c1,0,3,0,4,0c0,3,0,5,0,8   c-1,0-3,0-4,0c-4,0-4,5,0,5c1,0,3,0,4,0c0,3,0,5,0,8c-1,0-3,0-4,0c-4,0-4,5,0,5c1,0,3,0,4,0c0,3,0,5,0,8c-1,0-3,0-4,0c-4,0-4,5,0,5   c1,0,3,0,4,0c0,2,0,4,0,6c-3,0-7,0-10,0C-205,197-205,178-205,159z"/><path d="M-602.387,335.848c0.01-6.988,0.78-14.379-3.327-20.475c-4.19-6.22-12.705-9.049-20.524-8.296   c-0.215-3.578-1.711-7.075-4.334-9.525c-2.5-2.337-11.962-3.574-7.366-8.695c2.254-2.512-1.446-6.237-3.712-3.713   c-3.14,3.499-3.484,8.522-0.436,12.144c2.424,2.879,6.846,2.273,9.063,5.342c1.023,1.416,1.551,3.375,1.576,5.118   c0.002,0.143,0.026,0.271,0.046,0.401c-2.58,0.853-4.773,2.161-6.66,3.943c-4.115,3.886-5.939,10.424-5.939,15.986   c0,5.486,0,10.974,0,16.46c0,8.204,5.151,14.488,12.552,17.255c11.6,4.335,26.381-0.889,28.791-13.863   C-601.931,344.018-602.392,339.784-602.387,335.848z M-607.782,325.121c-4.146,1.158-8.564,2.058-13.032,2.493   c-0.18-5.053-0.359-10.105-0.539-15.157c0.234,0.029,0.469,0.058,0.7,0.093C-613.393,313.658-608.673,318.113-607.782,325.121z    M-635.702,317.189c2.079-3.095,5.507-4.456,9.096-4.824c0.184,5.176,0.368,10.353,0.551,15.528   c-4.406,0.038-8.777-0.45-12.902-1.678C-638.636,323.002-637.489,319.849-635.702,317.189z M-607.646,343.354   c-0.013,10.412-8.506,15.905-18.657,14.36c-7.052-1.072-12.696-5.909-12.696-13.476c0-4.202,0-8.403,0-12.604   c10,2.679,21.461,1.519,31.455-1.135C-607.518,334.783-607.641,339.075-607.646,343.354z"/><path d="M-448,345.021c0-11.354,0-22.706,0-34.059c0-3.246-3.309-4.798-5.746-6.49c-4.459-3.099-10.104-4.465-15.474-3.978   c-4.919,0.446-10.062,2.775-13.877,6.105c-7.315-5.596-16.164-8.079-25.15-4.312c-3.043,1.275-9.753,4.326-9.753,8.353   c0,11.678,0,23.355,0,35.033c0,2.23,3.085,3.556,4.669,1.856c8.098-8.69,19.935-7.38,28.42,0.021   c0.134,0.116,0.326,0.212,0.476,0.296c0.022,0.013,0.069,0.021,0.092,0.033c0.108,0.057,0.23,0.108,0.344,0.148   c0.064,0.024,0.137,0.042,0.203,0.061c0.068,0.02,0.14,0.038,0.21,0.052c0.105,0.022,0.214,0.037,0.321,0.048   c0.021,0.002,0.042,0.004,0.062,0.005c0.528,0.04,1.065-0.054,1.532-0.289c0.035-0.017,0.071-0.03,0.105-0.048   c0.004-0.002,0.007-0.004,0.011-0.006c0.385-0.2,0.712-0.483,0.942-0.832c8.075-8.118,19.516-6.719,27.829,0.532   c0.007,0.006,0.014,0.009,0.02,0.015c0.14,0.124,0.29,0.231,0.452,0.321c0.122,0.069,0.245,0.117,0.369,0.165   c0.019,0.007,0.036,0.018,0.056,0.024c0.152,0.055,0.306,0.091,0.46,0.115c0.005,0.001,0.01,0.002,0.015,0.003   c0.106,0.016,0.213,0.023,0.318,0.025c1.11,0.062,2.398-0.485,2.789-1.64C-448.068,346.096-448,345.553-448,345.021z    M-505.242,336.834c-2.443,0.64-4.758,1.792-6.758,3.259c0-8.271,0-16.543,0-24.813c0-1.359,0-2.719,0-4.078   c0-0.541,0.8-1.053,1.437-1.524c8.206-6.073,17.563-4.518,24.563,1.646c0,9.707,0,19.414,0,29.121   C-491,336.662-498.011,334.938-505.242,336.834z M-473.248,336.834c-2.443,0.64-4.752,1.792-6.752,3.259c0-9.633,0-19.267,0-28.899   c3-3.124,7.556-5.148,12.015-5.553c2.318-0.211,4.479,0.263,6.681,0.93c1.201,0.416,2.082,0.942,3.18,1.58   c0.711,0.378,4.125,3.791,4.125,1.988c0,1.485,0,2.971,0,4.456c0,8.617,0,17.235,0,25.854   C-459,336.663-466.012,334.938-473.248,336.834z"/><g><path d="M-372.981,37.571c0,11.567,0,23.134,0,34.7c0,3.386,5.25,3.386,5.25,0c0-11.566,0-23.133,0-34.7    C-367.731,34.186-372.981,34.186-372.981,37.571L-372.981,37.571z"/></g><g><path d="M-323.748,37.571c0,11.567,0,23.134,0,34.7c0,3.386,5.25,3.386,5.25,0c0-11.566,0-23.133,0-34.7    C-318.498,34.186-323.748,34.186-323.748,37.571L-323.748,37.571z"/></g><g><path d="M-315.152,47.736c-11.994-7.893-23.988-15.785-35.982-23.678c-2.838-1.867-5.465,2.681-2.65,4.533    c11.994,7.893,23.988,15.785,35.982,23.678C-314.965,54.137-312.338,49.588-315.152,47.736L-315.152,47.736z"/></g><g><path d="M-373.675,52.27c11.993-7.893,23.987-15.785,35.981-23.678c2.814-1.852,0.188-6.4-2.65-4.533    c-11.993,7.893-23.987,15.785-35.981,23.678C-379.14,49.588-376.513,54.137-373.675,52.27L-373.675,52.27z"/></g><path d="M-473.144,457.235c-3.135-3.787-6.27-7.788-9.403-11.575c-0.367-0.828-1.15-1.66-2.303-1.66c-0.038,0-0.077,0-0.115,0   c-1.152,0-1.936,0.832-2.303,1.66c-3.133,3.787-6.268,7.683-9.401,11.469c-2.141,2.587,1.347,6.376,3.508,3.766   c1.788-2.162,4.161-4.27,5.161-6.432c0,6.846,0,13.691,0,20.537c0,3.386,6,3.386,6,0c0-6.893,0-13.785,0-20.677   c1,2.208,3.486,4.416,5.313,6.625C-474.525,463.559-471.003,459.822-473.144,457.235z"/><path d="M-615.746,461.102c-1.787,2.162-3.254,4.324-5.254,6.486c0-6.846,0-13.588,0-20.588c0-3-5-3-5,0c0,7,0,13.835,0,20.726   c-2-2.208-3.89-4.416-5.717-6.624c-2.16-2.61-5.971,1.125-3.83,3.713c3.135,3.788,6.21,7.765,9.345,11.554   c0.368,0.827,1.091,1.632,2.242,1.632c0.038,0,0.076,0,0.113,0c1.15,0,1.933-0.805,2.301-1.632   c3.134-3.788,6.323-7.671,9.458-11.46C-609.948,462.32-613.586,458.491-615.746,461.102z"/><path d="M-344.207,461.025c3.354-3.355,6.709-6.711,10.063-10.065c2.396-2.396-1.316-6.108-3.713-3.713   c-3.354,3.355-6.709,6.71-10.063,10.065c-3.354-3.355-6.709-6.71-10.063-10.065c-2.396-2.396-6.108,1.316-3.713,3.713   c3.354,3.354,6.709,6.71,10.063,10.065c-3.354,3.355-6.709,6.711-10.063,10.065c-2.396,2.396,1.316,6.108,3.713,3.713   c3.354-3.355,6.709-6.71,10.063-10.065c3.354,3.355,6.709,6.71,10.063,10.065c2.396,2.396,6.108-1.316,3.713-3.713   C-337.498,467.736-340.853,464.381-344.207,461.025z"/><path d="M-31,46.116c0-4.608,0.887-9.51-1.511-13.656c-2.066-3.574-6.051-4.46-9.848-4.46c-5.715,0-11.429,0-17.144,0   c-6.452,0-12.904,0-19.356,0c-0.223-2.273-1.358-3.909-3.312-5.135c-1.419-0.89-2.745-0.838-4.352-0.838   c-2.83,0-5.533-0.255-7.584,2.029c-0.962,1.072-1.621,2.546-1.898,3.979c-5.867,0.355-10.492,4.853-10.551,11.103   c-0.078,8.355-0.145,16.892,0.001,25.246C-106.308,78.465-89.434,76-80.191,76c8.785,0,17.57,0,26.355,0   c5.691,0,13.797,1.217,18.75-2.123C-30.674,70.901-31,65.349-31,60.669C-31,55.818-31,50.967-31,46.116z M-87.967,27   c0.971,0,1.94,0,2.911,0c0.052,0,0.126,0.2,0.235,0.26c0.269,0.145,0.545,0.469,0.672,0.74c-2.111,0-4.222,0-6.332,0   C-89.929,27.053-89.241,27-87.967,27z M-35.853,65.42C-36.938,72.266-47.795,70-52.884,70c-14.087,0-28.174,0-42.261,0   c-8.652,0-6.24-14.604-6.224-20.5c0.015-5.483-2.061-15.5,6.11-16.5c11.919,0,23.837,0,35.756,0c5.715,0,11.429,0,17.144,0   c6.983,0,6.575,5.94,6.575,11.704C-35.783,51.38-34.804,58.807-35.853,65.42z"/><path d="M-54.562,52.705c0.016-0.284-0.02-0.535-0.074-0.771c-0.744-7.52-6.276-12.836-13.944-13.25   c-7.912-0.426-13.625,6.733-14.018,14.02c-0.426,7.912,6.73,13.625,14.018,14.018c7.628,0.41,13.197-6.228,13.94-13.234   C-54.582,53.249-54.546,52.994-54.562,52.705z M-77.348,52.705c-0.609-11.311,16.93-11.25,17.536,0   C-60.42,64.007-76.739,64.007-77.348,52.705z"/><g><path d="M-182.12,306.138c-3.327-5.358-10.365-4.301-15.737-4.303c-6.238-0.002-12.478-0.004-18.717-0.006    c-4.259-0.001-8.76,0.264-12.903,1.279c-4.979,1.221-5.662,7.417-5.897,11.66c-0.41,7.41-0.023,14.93-0.023,22.351    c0.275,13.972,18.523,10.874,27.739,10.874c8.857,0,28.52,3.447,27.71-10.771c-0.333-5.849-0.006-11.807-0.006-17.664    C-179.955,314.881-179.533,310.303-182.12,306.138z M-221.637,343c-3.917,0-8.363-1.001-8.363-5.881c0-6.202,0-12.404,0-18.606    c0-1.842-0.081-3.668,0.073-5.507c0.172-2.042,0.432-4.479,2.66-5.025c2.396-0.588,5.106-0.636,7.561-0.774    c3.186-0.181,6.706-0.181,9.706-0.158c0,11.898,0,23.952,0,35.952C-214,343-217.855,343-221.637,343z M-185.285,339.133    c-0.934,5.426-10.771,3.867-14.74,3.867c-1.672,0-2.975,0-4.975,0c0-12,0-24.032,0-35.92c0,0,0.315,0.003,0.483,0.003    c4.369,0.002,15.562-2.02,18.323,2.428c2.331,3.754,0.994,10.827,0.994,14.843C-185.199,329.07-184.479,334.455-185.285,339.133z"/><path d="M-245.426,325.938c-0.811,0.98-1.574,1.961-2.574,2.941c0-3.486,0-6.879,0-10.879c0-2-3-2-3,0c0,4,0,7.443,0,10.954    c-1-1.006-1.773-2.011-2.605-3.017c-1.439-1.74-3.956,0.75-2.528,2.475c1.727,2.087,3.426,4.396,5.152,6.484    c0.261,0.506,0.728,1.104,1.453,1.104c0.021,0,0.04,0,0.061,0c0.726,0,1.22-0.598,1.48-1.104c1.726-2.088,3.381-4.285,5.106-6.372    C-241.454,326.8-243.986,324.196-245.426,325.938z"/><path d="M-159.763,323.809c-1.725-2.084-3.45-4.004-5.175-6.088c-0.26-0.51-0.756-0.721-1.484-0.721c-0.021,0-0.042,0-0.062,0    c-0.729,0-1.225,0.211-1.483,0.721c-1.725,2.084-3.449,4.087-5.174,6.171c-1.427,1.725,1.152,4.174,2.592,2.433    c0.811-0.98,1.55-2.001,2.55-2.981c0,3.485,0,6.657,0,10.657c0,2,3,2,3,0c0-4,0-7.223,0-10.734c1,1.006,1.798,2.012,2.63,3.018    C-160.93,328.023-158.335,325.533-159.763,323.809z"/></g><path d="M-344.94,294.495c-17.486-0.416-31.164,14.698-31.565,31.562c-0.416,17.487,14.701,31.166,31.565,31.567   c17.488,0.416,31.164-14.703,31.565-31.567C-313.791,308.568-327.451,294.911-344.94,294.495z M-324.098,341.881   c-2.566-3.519-4.191-7.464-4.86-11.528c3.44-0.434,6.833-0.987,10.145-1.641C-319.397,333.668-321.271,338.166-324.098,341.881z    M-318.825,323.368c-3.402,0.701-6.901,1.293-10.46,1.75c0.182-5.22,1.903-10.393,5.182-14.88   C-321.292,314.027-319.423,318.562-318.825,323.368z M-334.332,325.687c-2.596,0.228-5.668,0.368-7.668,0.425   c0-8.763,0-17.524,0-26.287c5,0.469,10.585,2.865,14.558,6.469C-331.904,312.157-334.252,318.915-334.332,325.687z M-348,326.109   c-2-0.065-4.623-0.221-7.02-0.467c-0.092-6.855-2.536-13.693-7.115-19.602c4.004-3.279,9.135-5.462,14.135-6.104   C-348,308.66-348,317.385-348,326.109z M-348,331.359c0,6.979,0,13.958,0,20.937c-5-0.455-10.156-2.729-14.074-6.162   c3.625-4.644,5.743-9.872,6.576-15.24C-352.979,331.146-350,331.297-348,331.359z M-342,331.355c2-0.061,5.32-0.209,8.041-0.448   c0.812,5.218,3.021,10.306,6.473,14.851c-3.965,3.47-9.514,5.776-14.514,6.432C-342,345.245-342,338.3-342,331.355z    M-365.541,309.763c3.467,4.542,5.306,9.83,5.528,15.175c-3.687-0.609-7.306-1.452-10.799-2.596   c-0.083-0.027-0.158-0.033-0.239-0.053C-370.43,317.564-368.445,313.29-365.541,309.763z M-371.158,327.719   c3.521,1.092,7.148,1.913,10.844,2.498c-0.679,4.263-2.407,8.394-5.168,12.046C-368.661,338.131-370.7,333.07-371.158,327.719z"/><path d="M-42.981,162.301c-0.031-0.172-0.098-0.347-0.174-0.531c-0.004-0.009-0.019-0.019-0.022-0.028   c-0.287-0.697-0.78-1.157-1.341-1.431c0.047-0.037,0.093-0.073,0.14-0.109c-13.854-5.898-28.904-7.723-43.43-3.193   c-2.557,0.797-5.384,1.804-7.703,3.165C-97.38,161.27-97,164.337-97,166.142c0,16.646,0,33.294,0,49.941   c0,1.59,1.887,3.141,3.511,2.531c14.784-5.548,32.264-5.256,46.99,0.027c1.073,0.385,2.021,0.044,2.577-0.617   c0.499-0.423,0.922-1.06,0.922-1.914c0-9.106,0-18.212,0-27.318c0-6.284,0-12.569,0-18.854   C-43,167.89-42.395,164.501-42.981,162.301z M-91,212.42c0-16.146,0-32.292,0-48.438c13-6.849,29.856-5.043,42.985,0.202   c0.021,0.204,0.015,0.394,0.015,0.535c0,1.981,0,3.964,0,5.945c0,6.043,0,12.086,0,18.128c0,7.899,0,15.798,0,23.697   C-62,208.35-78,208.138-91,212.42z"/><g><path d="M-80.45,177.28c6.655-2.792,14.212-2.689,20.85,0c3.14,1.271,4.491-3.809,1.396-5.062c-7.365-2.983-16.243-3.104-23.643,0    C-84.92,173.507-83.571,178.59-80.45,177.28L-80.45,177.28z"/></g><g><path d="M-80.45,188.52c6.655-2.792,14.212-2.688,20.85,0c3.14,1.271,4.491-3.809,1.396-5.062c-7.365-2.983-16.243-3.104-23.643,0    C-84.92,184.746-83.571,189.828-80.45,188.52L-80.45,188.52z"/></g><g><path d="M-80.45,199.926c6.655-2.791,14.212-2.688,20.85,0c3.141,1.271,4.491-3.809,1.396-5.062    c-7.365-2.982-16.243-3.103-23.643,0C-84.92,196.152-83.571,201.234-80.45,199.926L-80.45,199.926z"/></g><path d="M-167.17,55.475c-3.213-4.5-9.194-5.921-12.782-1.951c-3.054-1.435-6.106-2.87-9.159-4.306   c2.595-1.22,5.189-2.44,7.784-3.66c1.129,0.311,2.29,0.528,3.448,0.665c4.182,0.494,7.795-0.207,10.313-3.77   c1.642-2.322,1.669-6.313-0.4-8.394c-1.361-1.369-2.854-2.049-4.723-2.506c-0.158-0.039-0.278-0.047-0.377-0.041   c-0.178-0.991-0.251-2.014-0.408-3.008c-1.34-8.493-14.187-8.271-15.015,0.275c-0.07,0.729-0.058,1.382,0.035,2.021   c-6.64,3.121-13.279,6.242-19.919,9.363c-6.202-2.915-12.404-5.83-18.606-8.746c0.795-7.23-9.565-12.392-13.913-5.361   c-0.834,1.349-1.053,3.119-1.249,4.654c-0.062,0.493-0.127,0.982-0.2,1.471c-0.019-0.279-0.365,0.015-1.544,0.303   c-3.376,0.825-5.663,4.322-4.999,7.718c0.673,3.438,3.024,5.75,6.381,6.602c1.814,0.46,3.875,0.271,5.697-0.035   c0.874-0.147,1.729-0.318,2.589-0.529c0.062-0.015,0.111-0.027,0.166-0.041c2.14,1.006,4.279,2.012,6.418,3.019   c-2.6,1.222-5.198,2.444-7.798,3.666c-3.587-3.971-9.569-2.548-12.78,1.951c-0.293,0.41-0.428,0.814-0.462,1.202   c-1.017,3.379,1.197,6.207,3.457,8.645c0.968,1.044-1.104,2.918-0.959,4.753c0.177,2.227,0.807,3.857,2.53,5.335   c2.821,2.416,6.961,2.09,9.817,0.033c1.539-1.107,2.653-2.693,3.681-4.259c0.482-0.735,0.872-1.535,1.26-2.322   c0.076-0.154,0.146-0.282,0.211-0.399c6.768-3.183,13.535-6.365,20.304-9.547c7.245,3.406,14.491,6.813,21.735,10.221   c0.572,1.24,1.229,2.426,1.981,3.572c2.389,3.641,5.575,5.418,9.89,4.816c3.398-0.475,6.061-4.184,5.464-7.508   c-0.48-2.674-1.96-2.875-0.202-4.77c1.427-1.539,2.609-3.242,3.027-5.32c0.186-0.92,0.05-1.779-0.232-2.629   C-166.747,56.277-166.882,55.879-167.17,55.475z M-180.844,45.332C-180.038,44.964-180.273,45.19-180.844,45.332L-180.844,45.332z    M-232.443,41.177c-1.407-0.662-2.5-0.163-3.905,0.182c-1.456,0.356-2.897,0.448-4.389,0.417c-2.018-0.042-4.652-3.009-1.752-4.229   c2.472-1.041,4.096-0.21,5.082-3.178c0.394-1.181,0.366-2.604,0.56-3.829c0.663-4.194,5.758-2.021,4.256,1.621   c-0.413,1.003,0.245,2.513,1.206,2.964c5.622,2.643,11.244,5.286,16.866,7.929c-2.322,1.092-4.645,2.183-6.967,3.275   C-225.139,44.612-228.791,42.894-232.443,41.177z M-230.385,62.847c-2.93,1.378-3.081,3.198-4.875,5.932   c-0.792,1.207-6.385,4.838-5.538,0.128c0.271-1.506,2.286-2.794,1.617-4.579c-0.824-2.2-4.767-4.615-4.354-7.026   c1.61-2.095,3.707-2.172,4.926,0.227c0.689,1.355,2.358,1.521,3.592,0.941c17.007-7.995,34.014-15.989,51.021-23.984   c0.961-0.452,1.619-1.961,1.206-2.964c-1.234-2.995,3.007-6.088,4.072-2.483c0.386,1.304,0.436,2.739,0.622,4.083   c0.258,1.855,1.401,3.236,3.303,3.438c2.104,0.224,3.852,1.026,2.695,3.244c-1.03,1.975-4.311,1.394-6.061,1.099   c-1.626-0.274-3.108-1.151-4.715-0.396c-6.993,3.289-13.987,6.577-20.981,9.866C-212.698,54.53-221.541,58.688-230.385,62.847z    M-228.583,67.66C-228.087,66.839-227.982,67.164-228.583,67.66L-228.583,67.66z M-176.117,66.709   c0.394,1.004,0.904,1.949,1.532,2.838c1.58,3.762-3.926,1.645-4.574,1.037c-2.66-2.492-2.315-5.441-5.504-6.939   c-5.854-2.754-11.709-5.507-17.563-8.26c2.084-0.979,4.168-1.96,6.252-2.939c0.239-0.112,0.478-0.225,0.717-0.337   c4.964,2.334,9.928,4.667,14.892,7.001c1.233,0.58,2.901,0.414,3.592-0.941c1.222-2.402,3.325-2.322,4.937-0.217   c0.464,2.453-3.391,4.418-4.201,6.582C-176.325,65.295-176.312,65.924-176.117,66.709z"/><path d="M318.759,46.549c1.994-8.851-3.129-16.972-11.82-20.239c-12.897-4.849-24.042,1.502-29.365,12.632   c-2.779-1.949-6.537-2.626-9.992-2.304c-0.14,0.013-0.264,0.042-0.394,0.069c-0.134,0.007-0.265,0.003-0.404,0.028   c-11.755,2.068-16.205,18.255-6.6,25.848c2.747,2.172,5.844,2.417,9.155,2.417c5.184,0,10.368,0,15.552,0c9.605,0,19.21,0,28.815,0   C324.839,65,327.196,50.341,318.759,46.549z"/><g><path d="M-49.297,463.471c0.01-0.24-0.015-0.458-0.056-0.664c-0.738-10.96-9.058-19.097-20.131-19.522    c-11.288-0.435-19.778,9.541-20.188,20.187c-0.435,11.29,9.542,19.778,20.188,20.188c11.077,0.427,19.45-9.171,20.149-19.589    C-49.303,463.884-49.289,463.685-49.297,463.471z M-69.483,478.409c-8.378,0.322-14.635-7.042-14.938-14.938    c-0.322-8.376,7.044-14.633,14.938-14.937c8.376-0.322,14.633,7.042,14.937,14.937C-54.869,471.854-61.1,478.086-69.483,478.409z"/><path d="M-67,436c0-3,0-5.376,0-8c0-3.386-5-3.386-5,0c0,2.624,0,5,0,8S-67,439-67,436z"/><path d="M-72,491c0,3,0,5,0,8s5,3,5,0s0-5,0-8S-72,488-72,491z"/><path d="M-97,461c-3,0-5,0-8,0s-3,5,0,5s5,0,8,0S-94,461-97,461z"/><path d="M-34,461c-2.624,0-5,0-8,0s-3,5,0,5s5.376,0,8,0C-30.614,466-30.614,461-34,461z"/><path d="M-47.879,445.594c1.855-1.856,3.711-3.713,5.566-5.568c2.396-2.396-1.317-6.109-3.713-3.713    c-1.855,1.856-3.711,3.713-5.566,5.568C-53.987,444.277-50.274,447.99-47.879,445.594z"/><path d="M-91.088,481.375c-1.854,1.855-3.709,3.711-5.564,5.565c-2.396,2.396,1.316,6.108,3.713,3.713    c1.854-1.855,3.709-3.711,5.564-5.565C-84.979,482.691-88.691,478.979-91.088,481.375z"/><path d="M-91.087,445.594c2.396,2.396,6.107-1.316,3.713-3.713c-1.855-1.855-3.711-3.712-5.565-5.568    c-2.396-2.396-6.107,1.316-3.713,3.713C-94.797,441.881-92.941,443.737-91.087,445.594z"/><path d="M-47.877,481.375c-2.396-2.396-6.108,1.316-3.713,3.713c1.855,1.854,3.71,3.71,5.564,5.565    c2.396,2.396,6.108-1.316,3.713-3.713C-44.168,485.086-46.022,483.23-47.877,481.375z"/></g><g><path d="M54,24c0-3,0-6,0-9c0-4-5-4-5,0c0,3,0,6,0,9S54,27,54,24z"/><path d="M20,53c-3,0-6,0-9,0c-4,0-4,5,0,5c3,0,6,0,9,0S23,53,20,53z"/><path d="M75.808,34.629c2.174-2.176,4.348-4.351,6.522-6.525c2.396-2.396-1.317-6.109-3.713-3.713    c-2.174,2.176-4.348,4.351-6.522,6.525C69.699,33.312,73.412,37.025,75.808,34.629z"/><path d="M25.854,34.627c2.396,2.396,6.108-1.316,3.713-3.713c-2.175-2.174-4.35-4.349-6.523-6.523    c-2.396-2.396-6.108,1.316-3.713,3.713C21.505,30.277,23.68,32.452,25.854,34.627z"/><path d="M88.247,63.169c2.12-8.771-2.864-16.834-11.483-20.076c-2.273-0.855-4.489-1.351-6.628-1.538    c-6.516-8.278-17.656-12.112-27.694-7.68c-9.962,4.398-14.857,14.092-13.854,24.585c-4.631,5.789-4.792,15.063,1.786,20.264    C33.035,80.828,36.061,81,39.264,81c5.184,0,10.368,0,15.552,0c9.605,0,19.211,0,28.816,0C94.459,81,96.702,66.604,88.247,63.169z     M63.218,41.738c-7.076,1.548-12.494,7.45-15.575,14.188c-2.743-2.113-6.611-2.814-10.137-2.486    c-0.1,0.01-0.188,0.036-0.281,0.055c-0.137,0.007-0.272,0.011-0.417,0.039c-0.026,0.005-0.049,0.013-0.075,0.019    c-0.486,0.088-0.955,0.208-1.415,0.344c-0.121,0.034-0.241,0.071-0.361,0.108c-0.168,0.055-0.333,0.114-0.498,0.175    c-0.28,0.097-0.568,0.184-0.839,0.295C34.418,39.779,52.229,32.274,63.218,41.738z M83.741,75.804    C82.166,75.898,80.556,76,78.979,76c-8.376,0-16.752,0-25.128,0c-5.671,0-11.342,0-17.013,0c-3.932,0-5.907-4.079-6.254-7.525    c-0.51-5.065,2.561-8.764,7.339-9.721c2.976-0.219,7.002,0.075,7.932,3.497c0.685,2.52,4.366,2.471,5.062-0.024    c0.861-3.085,2.37-5.98,4.132-8.637c0.195-0.295,0.4-0.563,0.604-0.837c1.403-1.754,3.051-3.251,4.932-4.33    c3.947-2.08,8.644-2.023,13.671-0.655c7.73,2.104,11.025,9.277,8.119,16.537c-0.671,1.677,0.992,3.337,2.531,3.42    C90.534,68.028,88.678,75.507,83.741,75.804z"/></g><g><path d="M149.429,42.624c2.819-0.263,7.065-0.164,7.988,3.238c0.781,2.88,4.989,2.851,5.785,0c0.853-3.055,2.35-5.905,4.095-8.536    c4.534-6.834,11.287-7.68,18.784-5.642c7.553,2.054,10.687,9.005,7.855,16.076c-0.768,1.916,1.134,3.702,2.893,3.798    c5.137,0.278,3.28,6.966-1.163,7.234c-1.575,0.095-3.186,0-4.763,0c-8.376,0-16.752,0-25.128,0c-5.671,0-11.342,0-17.013,0    c-3.707,0-5.555-3.713-5.881-6.954c-0.505-5.014,2.553-8.479,7.345-9.322c3.806-0.67,2.188-6.451-1.596-5.786    c-11.756,2.068-16.203,18.154-6.598,25.747c2.747,2.172,5.844,2.315,9.155,2.315c5.184,0,10.368,0,15.552,0    c9.605,0,19.211,0,28.816,0c12.563,0,13.961-18.547,1.272-19.234c0.964,1.266,1.929,2.531,2.893,3.798    c3.984-9.951-1.294-19.477-10.934-23.1c-14.849-5.581-27.379,3.71-31.371,18.01c1.929,0,3.856,0,5.785,0    c-1.649-6.08-8.123-8.169-13.773-7.643C145.61,36.98,145.575,42.983,149.429,42.624z"/></g><g><path d="M147.861,40.728c4.244-0.396,9.601,0.574,10.896,5.353c0.098,0.36,0.623,0.356,0.723,0    c0.941-3.376,2.581-6.576,4.513-9.482c5.354-8.054,13.415-9.533,22.394-7.13c9.175,2.454,13.669,11.27,10.159,20.032    c-0.096,0.239,0.142,0.463,0.361,0.475c7.323,0.375,7.776,10.495,1.254,12.659c-2.04,0.676-5.032,0.281-7.139,0.281    c-8.69,0-17.38,0-26.069,0c-5.955,0-11.911,0-17.866,0c-5.423,0-8.266-5.165-8.73-9.946c-0.612-6.285,3.547-11.201,9.604-12.253    c0.476-0.083,0.273-0.806-0.199-0.724c-6.644,1.155-10.409,6.326-10.155,12.977c0.205,5.4,3.842,10.421,9.453,10.696    c12.337,0.604,24.85,0,37.2,0c4.109,0,8.827,0.657,12.906-0.09c4.956-0.907,9.195-7.47,4.91-11.893    c-1.105-1.141-4.324-3.19-4.797-2.008c0.514-1.284,0.794-2.666,1.002-4.027c0.752-4.942-0.656-9.719-4.363-13.131    c-4.242-3.905-12.212-5.845-17.806-4.962c-5.843,0.922-10.065,4.601-13.261,9.408c-1.279,1.925-2.272,4.039-3.142,6.175    c-0.286,0.704-0.536,1.421-0.771,2.143c-0.289,0.886,0.501,0.463,0.471,0.365c-1.55-4.97-7.008-6.091-11.549-5.668    C147.384,40.022,147.38,40.772,147.861,40.728z"/></g><g><defs><path id="b" d="M148.667,40.353c9.572-1.293,11.256,5.628,11.256,5.628s5.298-19.491,20.515-18.108     c25.244,2.294,17.276,21.727,17.276,21.727s5.398,0.12,6.224,5.445c0.354,2.272-0.175,8.247-7.43,8.245h-48.645     C136.838,63.289,134.356,42.285,148.667,40.353z"/></defs><clipPath id="a"><use xlink:href="#b" overflow="visible"/></clipPath><g clip-path="url(#a)"><path d="M134.058,65.746c8.812-14.376,17.624-28.752,26.437-43.128c0.828-1.351-1.291-2.581-2.115-1.236     c-8.812,14.376-17.625,28.752-26.437,43.128C131.114,65.86,133.233,67.091,134.058,65.746L134.058,65.746z"/></g><g clip-path="url(#a)"><path d="M141.652,65.746c8.812-14.376,17.623-28.752,26.435-43.128c0.828-1.351-1.291-2.581-2.115-1.236     c-8.812,14.376-17.623,28.752-26.435,43.128C138.709,65.86,140.828,67.091,141.652,65.746L141.652,65.746z"/></g><g clip-path="url(#a)"><path d="M149.248,65.746c8.812-14.376,17.625-28.752,26.437-43.128c0.828-1.351-1.291-2.581-2.115-1.236     c-8.812,14.376-17.624,28.752-26.437,43.128C146.305,65.86,148.424,67.091,149.248,65.746L149.248,65.746z"/></g><g clip-path="url(#a)"><path d="M156.842,65.746c8.812-14.376,17.625-28.752,26.438-43.128c0.828-1.351-1.291-2.581-2.115-1.236     c-8.812,14.376-17.625,28.752-26.438,43.128C153.898,65.86,156.018,67.091,156.842,65.746L156.842,65.746z"/></g><g clip-path="url(#a)"><path d="M164.437,65.746c8.812-14.376,17.624-28.752,26.436-43.128c0.828-1.351-1.291-2.581-2.115-1.236     c-8.812,14.376-17.624,28.752-26.436,43.128C161.493,65.86,163.612,67.091,164.437,65.746L164.437,65.746z"/></g><g clip-path="url(#a)"><path d="M172.03,65.746c8.812-14.376,17.625-28.752,26.438-43.128c0.828-1.351-1.291-2.581-2.115-1.236     c-8.812,14.376-17.625,28.752-26.438,43.128C169.087,65.86,171.206,67.091,172.03,65.746L172.03,65.746z"/></g><g clip-path="url(#a)"><path d="M179.628,65.746c8.812-14.376,17.622-28.752,26.434-43.128c0.828-1.351-1.291-2.581-2.115-1.236     c-8.812,14.376-17.622,28.752-26.434,43.128C176.685,65.86,178.804,67.091,179.628,65.746L179.628,65.746z"/></g><g clip-path="url(#a)"><path d="M187.222,65.746c8.812-14.376,17.623-28.752,26.435-43.128c0.828-1.351-1.291-2.581-2.115-1.236     c-8.812,14.376-17.623,28.752-26.435,43.128C184.278,65.86,186.397,67.091,187.222,65.746L187.222,65.746z"/></g><g clip-path="url(#a)"><path d="M194.815,65.746c8.813-14.376,17.626-28.752,26.438-43.128c0.828-1.351-1.291-2.581-2.115-1.236     c-8.812,14.376-17.626,28.752-26.438,43.128C191.872,65.86,193.991,67.091,194.815,65.746L194.815,65.746z"/></g><g clip-path="url(#a)"><path d="M202.408,65.746c8.812-14.376,17.626-28.752,26.438-43.128c0.828-1.351-1.291-2.581-2.115-1.236     c-8.813,14.376-17.626,28.752-26.438,43.128C199.465,65.86,201.584,67.091,202.408,65.746L202.408,65.746z"/></g></g><path d="M440.778,46.549c1.994-8.851-3.129-16.972-11.82-20.239c-12.897-4.849-24.042,1.502-29.365,12.632   c-2.779-1.949-6.537-2.625-9.992-2.304c-0.14,0.013-0.265,0.042-0.394,0.069c-0.134,0.007-0.265,0.003-0.404,0.028   c-11.755,2.068-16.205,18.254-6.6,25.847c2.747,2.172,5.844,2.418,9.155,2.418c5.184,0,10.368,0,15.552,0c9.605,0,19.21,0,28.814,0   C446.857,65,449.216,50.34,440.778,46.549z M435.835,58.896C434.26,58.99,432.649,59,431.072,59c-8.376,0-16.751,0-25.127,0   c-5.671,0-11.342,0-17.012,0c-3.707,0-5.555-3.816-5.881-7.059c-0.492-4.899,2.424-8.365,7.03-9.304   c2.798-0.201,6.632,0.039,7.504,3.251c0.781,2.88,4.989,2.838,5.785-0.013c0.853-3.055,2.35-5.911,4.095-8.542   c4.533-6.834,11.285-7.685,18.783-5.646c7.554,2.054,10.689,9.004,7.857,16.076c-0.768,1.916,1.135,3.754,2.893,3.849   C442.137,51.892,440.277,58.629,435.835,58.896z"/><g><path d="M518.538,71.172c-2.269,3.698-4.536,7.396-6.805,11.094c-1.775,2.895,2.767,5.53,4.533,2.65    c2.269-3.698,4.536-7.396,6.805-11.094C524.847,70.928,520.305,68.292,518.538,71.172z"/><path d="M529.343,71.172c-2.269,3.698-4.536,7.396-6.805,11.094c-1.775,2.895,2.767,5.53,4.533,2.65    c2.269-3.698,4.536-7.396,6.805-11.094C535.651,70.928,531.109,68.292,529.343,71.172z"/><path d="M539.538,71.172c-2.269,3.698-4.536,7.396-6.805,11.094c-1.775,2.895,2.767,5.53,4.533,2.65    c2.269-3.698,4.536-7.396,6.805-11.094C545.847,70.928,541.305,68.292,539.538,71.172z"/><path d="M558.759,46.549c1.994-8.851-3.129-16.972-11.82-20.239c-12.897-4.849-24.042,1.502-29.365,12.632    c-2.779-1.949-6.537-2.625-9.992-2.304c-0.14,0.013-0.265,0.042-0.394,0.069c-0.134,0.007-0.265,0.003-0.404,0.028    c-11.755,2.068-16.205,18.254-6.6,25.847c2.747,2.172,5.844,2.418,9.155,2.418c5.184,0,10.368,0,15.552,0    c9.605,0,19.21,0,28.814,0C564.838,65,567.196,50.34,558.759,46.549z M553.815,58.896C552.24,58.99,550.63,59,549.053,59    c-8.376,0-16.751,0-25.127,0c-5.671,0-11.342,0-17.012,0c-3.707,0-5.555-3.816-5.881-7.059c-0.492-4.899,2.424-8.365,7.03-9.304    c2.798-0.201,6.632,0.039,7.504,3.251c0.781,2.88,4.989,2.838,5.785-0.013c0.853-3.055,2.35-5.911,4.095-8.542    c4.533-6.834,11.285-7.685,18.783-5.646c7.554,2.054,10.689,9.004,7.857,16.076c-0.768,1.916,1.135,3.754,2.893,3.849    C560.117,51.892,558.258,58.629,553.815,58.896z"/></g><path d="M-198.267,451.675c-4.326,6.122-8.652,12.243-12.978,18.364c-0.939-0.939-1.879-1.879-2.817-2.817   c-1.641-1.641-3.281-3.282-4.922-4.923c-2.396-2.396-6.108,1.316-3.713,3.713c2.851,2.85,5.7,5.7,8.55,8.55   c2.061,2.061,4.05,2.919,6.01,0.146c4.801-6.794,9.603-13.588,14.403-20.382C-191.774,451.553-196.33,448.935-198.267,451.675z    M-209.58,471.609C-209.296,471.737-209.281,471.827-209.58,471.609L-209.58,471.609z"/></g><text x="0" y="115" fill="#000000" font-size="5px" font-weight="bold" font-family="'Helvetica Neue', Helvetica, Arial-Unicode, Arial, Sans-serif">Created by Alexandra Hawkhead</text><text x="0" y="120" fill="#000000" font-size="5px" font-weight="bold" font-family="'Helvetica Neue', Helvetica, Arial-Unicode, Arial, Sans-serif">from the Noun Project</text></svg>